<?xml version="1.0" standalone="no"?>
<!DOCTYPE svg PUBLIC "-//W3C//DTD SVG 20010904//EN"
 "http://www.w3.org/TR/2001/REC-SVG-20010904/DTD/svg10.dtd">
<svg version="1.0" xmlns="http://www.w3.org/2000/svg"
 width="64.000000pt" height="64.000000pt" viewBox="0 0 64.000000 64.000000"
 preserveAspectRatio="xMidYMid meet">

<g transform="translate(0.000000,64.000000) scale(0.100000,-0.100000)"
fill="#000000" stroke="none">
<path d="M200 625 c0 -8 -4 -15 -10 -15 -14 0 -50 -42 -44 -52 3 -4 -1 -8 -9
-8 -8 0 -22 -9 -32 -20 -14 -15 -15 -23 -6 -34 10 -12 8 -93 -4 -104 -2 -2
-16 2 -32 10 -30 15 -63 13 -63 -4 0 -6 10 -8 22 -5 26 7 98 -30 98 -50 0 -11
4 -11 21 -2 17 9 23 8 30 -2 6 -11 11 -11 20 -2 9 9 5 13 -17 19 -26 6 -64 35
-64 49 0 3 8 5 18 5 14 0 15 2 2 10 -9 6 -10 10 -3 10 8 0 10 11 6 34 -8 52
39 130 88 146 47 16 125 7 159 -18 30 -23 62 -103 43 -109 -19 -7 -16 -23 5
-24 11 -1 9 -4 -8 -9 -24 -8 -24 -8 -2 -9 30 -1 28 -25 -3 -39 -32 -15 -33
-31 -1 -25 24 5 40 28 50 73 6 28 46 40 46 14 0 -18 -37 -93 -57 -116 -14 -15
-14 -26 1 -98 20 -100 20 -120 0 -148 -15 -22 -21 -23 -137 -20 -67 2 -143 -1
-169 -6 -61 -11 -68 3 -45 90 9 34 17 71 17 81 0 21 -106 141 -115 131 -3 -3
20 -31 52 -61 l58 -56 -18 -68 c-9 -37 -17 -80 -17 -94 0 -20 -7 -30 -30 -39
-29 -12 -30 -14 -14 -31 19 -22 44 -18 85 11 44 31 105 42 187 34 69 -6 78
-10 107 -41 28 -31 34 -33 59 -23 l29 11 -22 23 c-21 23 -22 27 -9 62 7 20 38
63 69 94 82 81 99 120 99 226 0 116 -30 164 -103 164 -30 0 -87 -36 -87 -55 0
-9 -4 -14 -10 -10 -5 3 -7 12 -3 20 3 8 2 27 -1 41 -5 20 -11 25 -28 21 -12
-3 -33 0 -47 7 -14 7 -56 16 -93 19 -56 5 -68 4 -68 -8z m-83 -117 c-3 -8 -6
-5 -6 6 -1 11 2 17 5 13 3 -3 4 -12 1 -19z m-12 -458 c3 -5 1 -10 -4 -10 -6 0
-11 5 -11 10 0 6 2 10 4 10 3 0 8 -4 11 -10z m367 -19 c11 -14 11 -14 -3 -3
-9 7 -22 11 -29 10 -7 -2 -14 2 -17 9 -6 17 34 4 49 -16z"/>
<path d="M340 504 c0 -17 22 -14 28 4 2 7 -3 12 -12 12 -9 0 -16 -7 -16 -16z"/>
<path d="M160 475 c0 -8 7 -15 15 -15 8 0 15 7 15 15 0 8 -7 15 -15 15 -8 0
-15 -7 -15 -15z"/>
<path d="M265 472 c-6 -4 -11 -19 -10 -33 0 -21 5 -26 22 -25 22 1 34 16 13
16 -6 0 -8 11 -4 25 6 25 -2 31 -21 17z"/>
<path d="M221 269 c-18 -6 -32 -11 -30 -13 8 -7 79 7 79 15 0 11 -4 10 -49 -2z"/>
<path d="M280 276 c0 -2 11 -6 25 -8 13 -3 22 -1 19 3 -5 9 -44 13 -44 5z"/>
</g>
</svg>
