<svg xmlns="http://www.w3.org/2000/svg" viewBox="0 0 85.41 89.25"><defs><style>.cls-1{fill:#fff;}</style></defs><g id="Слой_2" data-name="Слой 2"><g id="Слой_1-2" data-name="Слой 1"><path class="cls-1" d="M40.42,89.25A41.17,41.17,0,0,1,12,78.38h0C4.26,71.1,0,60.87,0,49.56A39.59,39.59,0,0,1,1.34,37.81l.32-1.07H60.38C58.14,26.57,49.65,20.53,37.5,20.53c-9.89,0-18,3.7-22.28,7.16L13.66,29,6.46,11.29l.83-.7C15.26,3.86,27.07,0,39.69,0,67,0,85.41,17.93,85.41,44.63,85.41,70.9,66.91,89.25,40.42,89.25ZM12.89,77.42A39.81,39.81,0,0,0,40.42,87.93c25.72,0,43.67-17.81,43.67-43.3,0-25.91-17.84-43.31-44.4-43.31-12.31,0-23.81,3.74-31.55,10.27l-.09.09,6.16,15.13.18-.14c4.47-3.61,12.88-7.46,23.11-7.46,13.14,0,22.24,6.75,24.34,18.07l.14.78H2.64l0,.12A38.53,38.53,0,0,0,1.32,49.56c0,10.94,4.11,20.84,11.57,27.86ZM41.34,70c-5.79,0-10.62-1.81-14-5.23a17.1,17.1,0,0,1-4.67-11.66v-.67h40l-.19.81C59.93,64.25,52.6,70,41.34,70ZM24,53.79a15.62,15.62,0,0,0,4.26,10.09c3.11,3.17,7.62,4.84,13.05,4.84,10.3,0,17.09-5.15,19.68-14.93Z"/></g></g></svg>